<svg width="190" height="134" viewBox="0 0 190 134" fill="none" xmlns="http://www.w3.org/2000/svg">
<rect x="17" width="156" height="134" rx="8" fill="#37649B"/>
<rect y="35" width="190" height="65" rx="11" fill="white"/>
<circle cx="34.5" cy="67.5" r="17.5" fill="#C4C4C4"/>
<path d="M69 58C69 56.8954 69.8954 56 71 56H106C107.105 56 108 56.8954 108 58V61C108 62.1046 107.105 63 106 63H71C69.8954 63 69 62.1046 69 61V58Z" fill="#C4C4C4"/>
<path d="M69 76C69 74.8954 69.8954 74 71 74H148C149.105 74 150 74.8954 150 76V79C150 80.1046 149.105 81 148 81H71C69.8954 81 69 80.1046 69 79V76Z" fill="#C4C4C4"/>
</svg>
