<svg xmlns="http://www.w3.org/2000/svg"  width="981"  height="978" viewBox="0 0 981 978" stroke="#000"
     stroke-linecap="round"
     stroke-linejoin="miter" fill="#fff" fill-rule="nonzero" stroke-width=".1"><path d="M718.6399 1.0972c-22.21 4.5201-13.17-3.9299-275.3599 258.07-275.17 274.97-259.84 258.27-260.23 284.6-.59 31.84 19.85 57 51.69 63.49 21.82 4.32 23 2.56-37.54 63.09l-54.05 54.05 55.62 55.43 55.43 55.62 49.73-49.73c51.3-51.3 54.25-53.46 62.9-47.17 1.77 1.38 4.91 7.47 7.27 13.56 11.01 29.88 36.16 47.17 65.25 44.42 21.82-1.97 26.73-5.7 93.75-72.92l61.72-61.71-17.69-17.3c-27.52-27.32-43.83-55.62-53.07-92.77-5.1101-20.05-4.5201-67.22.9799-87.46 16.9-61.72 61.13-109.87 120.2901-130.7 23.78-8.26 42.85-11.01 71.15-9.63 52.6699 2.16 99.65 25.55 135.0299 67.02l6.4901 7.67 54.83-54.84c64.0799-63.88 67.42-68.6 67.22-94.74 0-28.5 3.5399-24.18-108.5-136.6-86.67-87.0699-101.0201-100.64-111.2401-105.55-12.97-6.29-28.8999-8.45-41.67-5.9z"/><path d="M683.0599 359.0172c-94.74 16.9-151.34 111.83-120.4799 201.6599 12.3799 36.16 41.6699 69.38 75.4699 86.09 26.14 12.78 38.72 15.72 69.19 15.72 30.66 0 43.2401-2.95 69.77-16.12 15.72-7.8599 21.62-12.19 37.5401-28.11 16.5099-16.51 20.0499-21.23 29.0899-39.3099 12.19-24.5601 15.92-40.8801 15.92-68.98 0-69.38-45.0099-128.34-112.43-147.21-16.7-4.72-48.93-6.49-64.07-3.74z" fill="#f79432"/><path d="M108.75 758.7971l-8.84 8.84 55.62 55.62 55.43 55.43 9.24-9.43 9.43-9.24-55.03-55.03-56.02-55.03c-.59-.01-5.11 3.92-9.83 8.84zm-68.01 68.2001c-38.52 38.92-40.69 42.26-40.69 62.5 0 17.6899 5.5 27.1199 31.64 53.66 30.07 30.66 35.58 33.81 57.39 33.81 22.41 0 26.53-2.75 66.24-42.6501l32.04-32.0399-55.62-55.62-55.62-55.62-35.38 35.96z" fill="#128807"/></svg>