<svg width="512" height="512" viewBox="0 0 512 512" fill="none" xmlns="http://www.w3.org/2000/svg">
    <rect width="512" height="512" fill="white"/>
    <path d="M169.391 330.104C169.391 327.597 168.495 325.644 166.705 324.244C164.947 322.844 161.839 321.396 157.379 319.898C152.919 318.401 149.273 316.952 146.441 315.553C137.229 311.028 132.623 304.811 132.623 296.9C132.623 292.962 133.762 289.495 136.041 286.5C138.352 283.473 141.607 281.129 145.807 279.469C150.006 277.776 154.726 276.93 159.967 276.93C165.077 276.93 169.651 277.841 173.688 279.664C177.757 281.487 180.914 284.091 183.16 287.477C185.406 290.829 186.529 294.671 186.529 299H169.439C169.439 296.103 168.544 293.857 166.754 292.262C164.996 290.667 162.604 289.869 159.576 289.869C156.516 289.869 154.091 290.553 152.301 291.92C150.543 293.255 149.664 294.964 149.664 297.047C149.664 298.87 150.641 300.53 152.594 302.027C154.547 303.492 157.981 305.022 162.896 306.617C167.812 308.18 171.848 309.872 175.006 311.695C182.688 316.122 186.529 322.226 186.529 330.006C186.529 336.223 184.186 341.106 179.498 344.654C174.811 348.202 168.382 349.977 160.211 349.977C154.449 349.977 149.225 348.951 144.537 346.9C139.882 344.817 136.367 341.985 133.99 338.404C131.646 334.791 130.475 330.641 130.475 325.953H147.662C147.662 329.762 148.639 332.577 150.592 334.4C152.577 336.191 155.784 337.086 160.211 337.086C163.043 337.086 165.273 336.484 166.9 335.279C168.561 334.042 169.391 332.317 169.391 330.104ZM213.727 283.033V296.168H222.418V307.594H213.727V331.764C213.727 333.749 214.085 335.133 214.801 335.914C215.517 336.695 216.933 337.086 219.049 337.086C220.676 337.086 222.044 336.988 223.15 336.793V348.561C220.188 349.505 217.096 349.977 213.873 349.977C208.209 349.977 204.026 348.642 201.324 345.973C198.622 343.303 197.271 339.251 197.271 333.814V307.594H190.533V296.168H197.271V283.033H213.727ZM225.396 322.096C225.396 316.822 226.422 312.135 228.473 308.033C230.523 303.899 233.469 300.725 237.311 298.512C241.152 296.298 245.66 295.191 250.836 295.191C258.746 295.191 264.98 297.649 269.537 302.564C274.094 307.447 276.373 314.104 276.373 322.535V323.121C276.373 331.357 274.078 337.9 269.488 342.75C264.931 347.568 258.746 349.977 250.934 349.977C243.414 349.977 237.376 347.73 232.818 343.238C228.261 338.714 225.803 332.594 225.445 324.879L225.396 322.096ZM241.852 323.121C241.852 328.004 242.617 331.585 244.146 333.863C245.676 336.142 247.939 337.281 250.934 337.281C256.793 337.281 259.788 332.773 259.918 323.756V322.096C259.918 312.623 256.891 307.887 250.836 307.887C245.335 307.887 242.356 311.972 241.9 320.143L241.852 323.121ZM305.963 337.281C308.274 337.281 310.064 336.663 311.334 335.426C312.604 334.156 313.222 332.398 313.189 330.152H328.619C328.619 335.947 326.536 340.699 322.369 344.41C318.235 348.121 312.896 349.977 306.354 349.977C298.671 349.977 292.617 347.568 288.189 342.75C283.762 337.932 281.549 331.259 281.549 322.73V322.047C281.549 316.708 282.525 312.005 284.479 307.936C286.464 303.834 289.312 300.693 293.023 298.512C296.734 296.298 301.129 295.191 306.207 295.191C313.076 295.191 318.528 297.096 322.564 300.904C326.601 304.713 328.619 309.872 328.619 316.383H313.189C313.189 313.648 312.522 311.549 311.188 310.084C309.853 308.619 308.062 307.887 305.816 307.887C301.552 307.887 299.062 310.605 298.346 316.041C298.118 317.766 298.004 320.143 298.004 323.17C298.004 328.476 298.639 332.154 299.908 334.205C301.178 336.256 303.196 337.281 305.963 337.281ZM356.793 329.322L352.154 333.961V349H335.699V273.951H352.154V313.795L353.814 311.598L366.217 296.168H385.943L367.438 317.896L387.164 349H368.316L356.793 329.322ZM96.8809 440.902H87.6035V466H70.4648V394.906H98.4434C106.874 394.906 113.466 396.778 118.219 400.521C122.971 404.265 125.348 409.555 125.348 416.391C125.348 421.339 124.339 425.44 122.32 428.695C120.335 431.951 117.21 434.587 112.945 436.605L127.789 465.268V466H109.43L96.8809 440.902ZM87.6035 427.67H98.4434C101.699 427.67 104.14 426.824 105.768 425.131C107.428 423.406 108.258 421.013 108.258 417.953C108.258 414.893 107.428 412.501 105.768 410.775C104.107 409.018 101.666 408.139 98.4434 408.139H87.6035V427.67ZM160.504 466.977C152.398 466.977 145.839 464.568 140.826 459.75C135.813 454.9 133.307 448.601 133.307 440.854V439.486C133.307 434.083 134.299 429.314 136.285 425.18C138.303 421.046 141.233 417.855 145.074 415.609C148.915 413.331 153.473 412.191 158.746 412.191C166.168 412.191 172.027 414.503 176.324 419.125C180.621 423.715 182.77 430.128 182.77 438.363V444.76H150.055C150.641 447.722 151.926 450.049 153.912 451.742C155.898 453.435 158.469 454.281 161.627 454.281C166.835 454.281 170.904 452.458 173.834 448.812L181.354 457.699C179.303 460.531 176.389 462.794 172.613 464.486C168.87 466.146 164.833 466.977 160.504 466.977ZM158.648 424.887C153.831 424.887 150.966 428.077 150.055 434.457H166.656V433.188C166.721 430.551 166.054 428.516 164.654 427.084C163.255 425.619 161.253 424.887 158.648 424.887ZM187.506 439.193C187.506 433.855 188.385 429.135 190.143 425.033C191.9 420.932 194.423 417.774 197.711 415.561C200.999 413.314 204.824 412.191 209.186 412.191C214.687 412.191 218.984 414.047 222.076 417.758L222.662 413.168H237.604V463.998C237.604 468.653 236.513 472.689 234.332 476.107C232.184 479.558 229.059 482.195 224.957 484.018C220.855 485.873 216.103 486.801 210.699 486.801C206.826 486.801 203.066 486.068 199.42 484.604C195.807 483.139 193.04 481.234 191.119 478.891L198.004 469.223C201.064 472.836 205.1 474.643 210.113 474.643C217.405 474.643 221.051 470.899 221.051 463.412V461.752C217.893 465.235 213.906 466.977 209.088 466.977C202.643 466.977 197.434 464.519 193.463 459.604C189.492 454.656 187.506 448.048 187.506 439.779V439.193ZM204.01 440.219C204.01 444.548 204.824 447.982 206.451 450.521C208.079 453.028 210.357 454.281 213.287 454.281C216.835 454.281 219.423 453.093 221.051 450.717V428.5C219.456 426.091 216.9 424.887 213.385 424.887C210.455 424.887 208.16 426.205 206.5 428.842C204.84 431.446 204.01 435.238 204.01 440.219ZM264.312 466H247.809V413.168H264.312V466ZM246.832 399.545C246.832 397.201 247.678 395.281 249.371 393.783C251.064 392.286 253.261 391.537 255.963 391.537C258.665 391.537 260.862 392.286 262.555 393.783C264.247 395.281 265.094 397.201 265.094 399.545C265.094 401.889 264.247 403.809 262.555 405.307C260.862 406.804 258.665 407.553 255.963 407.553C253.261 407.553 251.064 406.804 249.371 405.307C247.678 403.809 246.832 401.889 246.832 399.545ZM302.154 451.156C302.154 449.757 301.422 448.633 299.957 447.787C298.492 446.941 295.709 446.062 291.607 445.15C287.506 444.239 284.12 443.051 281.451 441.586C278.782 440.089 276.747 438.282 275.348 436.166C273.948 434.05 273.248 431.625 273.248 428.891C273.248 424.04 275.25 420.053 279.254 416.928C283.258 413.77 288.499 412.191 294.977 412.191C301.943 412.191 307.542 413.77 311.773 416.928C316.005 420.085 318.121 424.236 318.121 429.379H301.617C301.617 425.147 299.387 423.031 294.928 423.031C293.202 423.031 291.754 423.52 290.582 424.496C289.41 425.44 288.824 426.628 288.824 428.061C288.824 429.525 289.54 430.714 290.973 431.625C292.405 432.536 294.684 433.285 297.809 433.871C300.966 434.457 303.733 435.157 306.109 435.971C314.052 438.705 318.023 443.604 318.023 450.668C318.023 455.486 315.875 459.408 311.578 462.436C307.314 465.463 301.78 466.977 294.977 466.977C290.452 466.977 286.415 466.163 282.867 464.535C279.319 462.908 276.552 460.694 274.566 457.895C272.581 455.095 271.588 452.149 271.588 449.057H286.969C287.034 451.498 287.848 453.288 289.41 454.428C290.973 455.535 292.975 456.088 295.416 456.088C297.662 456.088 299.339 455.632 300.445 454.721C301.585 453.809 302.154 452.621 302.154 451.156ZM344.928 400.033V413.168H353.619V424.594H344.928V448.764C344.928 450.749 345.286 452.133 346.002 452.914C346.718 453.695 348.134 454.086 350.25 454.086C351.878 454.086 353.245 453.988 354.352 453.793V465.561C351.389 466.505 348.297 466.977 345.074 466.977C339.41 466.977 335.227 465.642 332.525 462.973C329.824 460.303 328.473 456.251 328.473 450.814V424.594H321.734V413.168H328.473V400.033H344.928ZM385.699 466.977C377.594 466.977 371.035 464.568 366.021 459.75C361.008 454.9 358.502 448.601 358.502 440.854V439.486C358.502 434.083 359.495 429.314 361.48 425.18C363.499 421.046 366.428 417.855 370.27 415.609C374.111 413.331 378.668 412.191 383.941 412.191C391.363 412.191 397.223 414.503 401.52 419.125C405.816 423.715 407.965 430.128 407.965 438.363V444.76H375.25C375.836 447.722 377.122 450.049 379.107 451.742C381.093 453.435 383.665 454.281 386.822 454.281C392.031 454.281 396.1 452.458 399.029 448.812L406.549 457.699C404.498 460.531 401.585 462.794 397.809 464.486C394.065 466.146 390.029 466.977 385.699 466.977ZM383.844 424.887C379.026 424.887 376.161 428.077 375.25 434.457H391.852V433.188C391.917 430.551 391.249 428.516 389.85 427.084C388.45 425.619 386.448 424.887 383.844 424.887ZM446.588 428.061L441.168 427.67C435.992 427.67 432.672 429.298 431.207 432.553V466H414.752V413.168H430.182L430.719 419.955C433.486 414.779 437.343 412.191 442.291 412.191C444.049 412.191 445.579 412.387 446.881 412.777L446.588 428.061Z"
          fill="#3F31DE"/>
    <g filter="url(#filter0_d_998_104)">
        <rect x="180" y="23" width="170" height="220" rx="5" fill="#3F31DE"/>
    </g>
    <g filter="url(#filter1_d_998_104)">
        <rect x="173" y="23" width="170" height="220" rx="5" fill="white"/>
    </g>
    <rect x="166" y="23" width="170" height="220" rx="5" fill="#3F31DE"/>
    <g filter="url(#filter2_d_998_104)">
        <rect x="201.034" y="83.0352" width="100.93" height="100.93" rx="4.20542" fill="white"/>
    </g>
    <path d="M269.342 151.342C264.61 156.074 258.192 158.733 251.5 158.733C244.808 158.733 238.39 156.074 233.658 151.342C230.684 148.369 228.543 144.741 227.413 140.934H218.73C220.068 146.911 223.042 152.621 227.711 157.29C234.02 163.599 242.577 167.144 251.5 167.144C260.423 167.144 268.98 163.599 275.289 157.29L284.211 166.211L284.211 142.421L260.421 142.421L269.342 151.342ZM227.711 109.711L218.789 100.79L218.789 124.579L242.579 124.579L233.658 115.658C238.39 110.926 244.808 108.268 251.5 108.268C258.192 108.268 264.61 110.926 269.342 115.658C272.316 118.632 274.457 122.26 275.587 126.066L284.27 126.066C282.932 120.089 279.958 114.379 275.289 109.711C268.98 103.401 260.423 99.8568 251.5 99.8568C242.577 99.8568 234.02 103.401 227.711 109.711Z"
          fill="#3F31DE"/>
    <defs>
        <filter id="filter0_d_998_104" x="178.59" y="21.5904" width="175.638" height="225.638"
                filterUnits="userSpaceOnUse" color-interpolation-filters="sRGB">
            <feFlood flood-opacity="0" result="BackgroundImageFix"/>
            <feColorMatrix in="SourceAlpha" type="matrix" values="0 0 0 0 0 0 0 0 0 0 0 0 0 0 0 0 0 0 127 0"
                           result="hardAlpha"/>
            <feMorphology radius="1.40959" operator="dilate" in="SourceAlpha" result="effect1_dropShadow_998_104"/>
            <feOffset dx="1.40959" dy="1.40959"/>
            <feGaussianBlur stdDeviation="0.704797"/>
            <feColorMatrix type="matrix" values="0 0 0 0 0.0876666 0 0 0 0 0.00833333 0 0 0 0 1 0 0 0 0.1 0"/>
            <feBlend mode="normal" in2="BackgroundImageFix" result="effect1_dropShadow_998_104"/>
            <feBlend mode="normal" in="SourceGraphic" in2="effect1_dropShadow_998_104" result="shape"/>
        </filter>
        <filter id="filter1_d_998_104" x="171.59" y="21.5904" width="175.638" height="225.638"
                filterUnits="userSpaceOnUse" color-interpolation-filters="sRGB">
            <feFlood flood-opacity="0" result="BackgroundImageFix"/>
            <feColorMatrix in="SourceAlpha" type="matrix" values="0 0 0 0 0 0 0 0 0 0 0 0 0 0 0 0 0 0 127 0"
                           result="hardAlpha"/>
            <feMorphology radius="1.40959" operator="dilate" in="SourceAlpha" result="effect1_dropShadow_998_104"/>
            <feOffset dx="1.40959" dy="1.40959"/>
            <feGaussianBlur stdDeviation="0.704797"/>
            <feColorMatrix type="matrix" values="0 0 0 0 0.0876666 0 0 0 0 0.00833333 0 0 0 0 1 0 0 0 0.1 0"/>
            <feBlend mode="normal" in2="BackgroundImageFix" result="effect1_dropShadow_998_104"/>
            <feBlend mode="normal" in="SourceGraphic" in2="effect1_dropShadow_998_104" result="shape"/>
        </filter>
        <filter id="filter2_d_998_104" x="199.352" y="81.353" width="107.659" height="107.659"
                filterUnits="userSpaceOnUse" color-interpolation-filters="sRGB">
            <feFlood flood-opacity="0" result="BackgroundImageFix"/>
            <feColorMatrix in="SourceAlpha" type="matrix" values="0 0 0 0 0 0 0 0 0 0 0 0 0 0 0 0 0 0 127 0"
                           result="hardAlpha"/>
            <feMorphology radius="1.68217" operator="dilate" in="SourceAlpha" result="effect1_dropShadow_998_104"/>
            <feOffset dx="1.68217" dy="1.68217"/>
            <feGaussianBlur stdDeviation="0.841085"/>
            <feColorMatrix type="matrix" values="0 0 0 0 0.0876666 0 0 0 0 0.00833333 0 0 0 0 1 0 0 0 0.1 0"/>
            <feBlend mode="normal" in2="BackgroundImageFix" result="effect1_dropShadow_998_104"/>
            <feBlend mode="normal" in="SourceGraphic" in2="effect1_dropShadow_998_104" result="shape"/>
        </filter>
    </defs>
</svg>